# xmcd
#
# Track frame offsets:
#	150
#	17935
#	27767
#	43895
#	60882
#	69882
#	81887
#	92360
#	107830
#	123135
#
# Disc length: 1864 seconds
#
# Revision: 1
# Processed by: cddbd v1.4PL0 Copyright (c) Steve Scherf et al.
# Submitted via: CDmax 1.8
#
DISCID=7007460a
DTITLE=Rattlesnake Annie - Crossroads
DYEAR=1991
DGENRE=Country
TTITLE0=Night life
TTITLE1=Friend in California
TTITLE2=My old man
TTITLE3=You belong to me
TTITLE4=Texas and Oklahoma
TTITLE5=I always get lucky
TTITLE6=Blue moon of Kentucky
TTITLE7=If I nedded you
TTITLE8=I've gotta have my baby back
TTITLE9=St. James infirmary
EXTD=
EXTT0=
EXTT1=
EXTT2=
EXTT3=
EXTT4=
EXTT5=
EXTT6=
EXTT7=
EXTT8=
EXTT9=
PLAYORDER=
